<svg width="513" height="512" viewBox="0 0 513 512" fill="none" xmlns="http://www.w3.org/2000/svg">
<rect x="0.680176" width="512" height="512" rx="68" fill="#F7F7F7"/>
<g clip-path="url(#clip0_328_1275)">
<path fill-rule="evenodd" clip-rule="evenodd" d="M74.0357 112.567C68.3903 112.567 63.8137 117.144 63.8137 122.789V178.351C63.8137 183.996 68.3903 188.573 74.0358 188.573H79.9418C77.3567 188.871 75.3035 191.136 75.3035 193.828V199.116V203.314C75.3035 209.692 79.1224 215.308 84.5548 217.761V224.848C84.5548 230.191 87.1366 234.934 91.1706 237.823C93.7523 239.677 96.8181 240.713 100.207 240.713H101.605V349.748H100.207C96.8181 349.748 93.7523 350.838 91.1706 352.637C87.1366 355.472 84.5548 360.27 84.5548 365.612V374.662C79.1224 377.115 75.3035 382.676 75.3035 389.109V398.595C75.3035 401.485 77.6701 403.883 80.5208 403.883H176.1C178.95 403.883 181.317 401.485 181.317 398.595V389.109C181.317 382.731 177.498 377.17 172.066 374.662V365.612C172.066 359.561 168.785 354.382 163.944 351.71C161.685 350.456 159.157 349.748 156.414 349.748H153.509V240.713H156.414C159.103 240.713 161.685 240.004 163.944 238.75C168.785 236.079 172.066 230.9 172.066 224.848V217.761C177.498 215.253 181.317 209.747 181.317 203.314V199.116V193.828C181.317 193.828 181.254 191.401 179.851 189.902C178.99 188.982 177.763 188.672 176.889 188.573H208.183C205.598 188.871 203.545 191.136 203.545 193.828V199.116V203.314C203.545 209.692 207.364 215.308 212.796 217.761V224.848C212.796 230.191 215.378 234.934 219.412 237.823C221.994 239.677 225.06 240.713 228.449 240.713H229.847V349.748H228.449C225.06 349.748 221.994 350.838 219.412 352.637C215.378 355.472 212.796 360.27 212.796 365.612V374.662C207.364 377.115 203.545 382.676 203.545 389.109V398.595C203.545 401.485 205.912 403.883 208.762 403.883H304.343C307.194 403.883 309.56 401.485 309.56 398.595V389.109C309.56 382.731 305.741 377.17 300.309 374.662V365.612C300.309 359.561 297.028 354.382 292.187 351.71C289.928 350.456 287.4 349.748 284.657 349.748H281.752V240.713H284.657C287.346 240.713 289.928 240.004 292.187 238.75C297.028 236.079 300.309 230.9 300.309 224.848V217.761C305.741 215.253 309.56 209.747 309.56 203.314V199.116V193.828C309.56 193.828 309.497 191.401 308.095 189.902C307.234 188.982 306.007 188.672 305.132 188.573H336.426C333.841 188.871 331.788 191.136 331.788 193.828V199.116V203.314C331.788 209.692 335.607 215.308 341.039 217.761V224.848C341.039 230.191 343.621 234.934 347.655 237.823C350.237 239.677 353.303 240.713 356.692 240.713H358.09V349.748H356.692C353.303 349.748 350.237 350.838 347.655 352.637C343.621 355.472 341.039 360.27 341.039 365.612V374.662C335.607 377.115 331.788 382.676 331.788 389.109V398.595C331.788 401.485 334.155 403.883 337.005 403.883H432.586C435.437 403.883 437.803 401.485 437.803 398.595V389.109C437.803 382.731 433.984 377.17 428.552 374.662V365.612C428.552 359.561 425.271 354.382 420.43 351.71C418.171 350.456 415.643 349.748 412.9 349.748H409.995V240.713H412.9C415.589 240.713 418.171 240.004 420.43 238.75C425.271 236.079 428.552 230.9 428.552 224.848V217.761C433.984 215.253 437.803 209.747 437.803 203.314V199.116V193.828C437.803 193.828 437.74 191.401 436.338 189.902C435.476 188.982 434.25 188.672 433.375 188.573H439.845C445.491 188.573 450.067 183.996 450.067 178.351V122.789C450.067 117.144 445.491 112.567 439.845 112.567H74.0357Z" fill="#051544"/>
</g>
<defs>
<clipPath id="clip0_328_1275">
<rect width="386.774" height="386.774" fill="white" transform="translate(63.293 62.6133)"/>
</clipPath>
</defs>
</svg>
